<svg width="current" height="current" viewBox="0 0 32 33" fill="none" xmlns="http://www.w3.org/2000/svg">
<g clip-path="url(#clip0_4889_4022)">
<path d="M21.3333 5.83301H23.6666C25.3234 5.83301 26.6666 7.17615 26.6666 8.83301V11.1663" stroke="#FEFEFE" stroke-width="1.5" stroke-linecap="round" stroke-linejoin="round"/>
<path d="M10.6667 27.1663L8.33342 27.1663C6.67656 27.1663 5.33342 25.8231 5.33342 24.1663L5.33342 21.8329" stroke="#FEFEFE" stroke-width="1.5" stroke-linecap="round" stroke-linejoin="round"/>
<path d="M26.6666 21.833V24.1663C26.6666 25.8232 25.3234 27.1663 23.6666 27.1663H21.3333" stroke="#FEFEFE" stroke-width="1.5" stroke-linecap="round" stroke-linejoin="round"/>
<path d="M5.33342 11.1663L5.33342 8.83293C5.33342 7.17607 6.67656 5.83293 8.33342 5.83293L10.6667 5.83293" stroke="#FEFEFE" stroke-width="1.5" stroke-linecap="round" stroke-linejoin="round"/>
<rect x="9.66675" y="10.1667" width="4.66667" height="4.66667" rx="1" stroke="#FEFEFE" stroke-width="1.5" stroke-linecap="round" stroke-linejoin="round"/>
<rect x="17.6667" y="10.1667" width="4.66667" height="4.66667" rx="1" stroke="#FEFEFE" stroke-width="1.5" stroke-linecap="round" stroke-linejoin="round"/>
<rect x="9.66675" y="18.1667" width="4.66667" height="4.66667" rx="1" stroke="#FEFEFE" stroke-width="1.5" stroke-linecap="round" stroke-linejoin="round"/>
<path d="M18.6667 18.8333L18.6817 18.8167" stroke="#FEFEFE" stroke-width="1.5" stroke-linecap="round" stroke-linejoin="round"/>
<path d="M22 18.8333L22.0149 18.8167" stroke="#FEFEFE" stroke-width="1.5" stroke-linecap="round" stroke-linejoin="round"/>
<path d="M18.6667 21.8498L18.6816 21.8333" stroke="#FEFEFE" stroke-width="1.5" stroke-linecap="round" stroke-linejoin="round"/>
</g>
<defs>
<clipPath id="clip0_4889_4022">
<rect width="32" height="32" fill="white" transform="translate(0 0.5)"/>
</clipPath>
</defs>
</svg>
